<?xml version="1.0" standalone="no"?><!DOCTYPE svg PUBLIC "-//W3C//DTD SVG 1.1//EN" "http://www.w3.org/Graphics/SVG/1.1/DTD/svg11.dtd"><svg t="1588905628088" class="icon" viewBox="0 0 1024 1024" version="1.1" xmlns="http://www.w3.org/2000/svg" p-id="4500" xmlns:xlink="http://www.w3.org/1999/xlink" width="200" height="200"><defs><style type="text/css"></style></defs><path d="M836.645926 735.099259h-649.481482c-32.711111 0-59.259259-26.548148-59.259259-59.259259v-488.296296c0-32.711111 26.548148-59.259259 59.259259-59.25926h649.481482c32.711111 0 59.259259 26.548148 59.259259 59.25926v488.296296c0 32.616296-26.548148 59.259259-59.259259 59.259259z m-649.481482-564.148148c-9.102222 0-16.592593 7.49037-16.592592 16.592593v488.296296c0 9.102222 7.49037 16.592593 16.592592 16.592593h649.481482c9.102222 0 16.592593-7.49037 16.592593-16.592593v-488.296296c0-9.102222-7.49037-16.592593-16.592593-16.592593h-649.481482z" p-id="4501"></path><path d="M462.980741 598.565926c-6.826667 0-13.368889-3.318519-17.445926-9.007407L347.211852 450.74963l-76.8 76.61037c-8.343704 8.343704-21.807407 8.343704-30.151111 0s-8.343704-21.807407 0-30.151111l94.625185-94.435556c4.456296-4.456296 10.619259-6.731852 16.877037-6.162963 6.257778 0.568889 11.946667 3.792593 15.54963 8.912593l85.997037 121.268148L507.259259 305.682963c1.896296-7.86963 8.154074-14.032593 16.118519-15.739259 7.964444-1.706667 16.213333 1.137778 21.238518 7.49037l146.204445 182.708148 62.482963-63.431111c8.248889-8.438519 21.807407-8.533333 30.151111-0.284444 8.438519 8.248889 8.533333 21.807407 0.284444 30.151111l-79.36 80.592592c-4.266667 4.361481-10.24 6.637037-16.308148 6.352593-6.068148-0.284444-11.757037-3.223704-15.54963-7.964444L538.453333 357.925926l-54.708148 224.331852c-1.991111 8.154074-8.533333 14.317037-16.687407 15.928889-1.422222 0.284444-2.74963 0.379259-4.077037 0.379259zM834.275556 896.284444h-644.740741c-11.757037 0-21.333333-9.576296-21.333334-21.333333s9.576296-21.333333 21.333334-21.333333h644.740741c11.757037 0 21.333333 9.576296 21.333333 21.333333s-9.481481 21.333333-21.333333 21.333333z" p-id="4502"></path><path d="M511.905185 896.284444c-11.757037 0-21.333333-9.576296-21.333333-21.333333v-161.185185c0-11.757037 9.576296-21.333333 21.333333-21.333333s21.333333 9.576296 21.333334 21.333333v161.185185c0 11.757037-9.481481 21.333333-21.333334 21.333333z" p-id="4503"></path></svg>