<?xml version="1.0" standalone="no"?><!DOCTYPE svg PUBLIC "-//W3C//DTD SVG 1.1//EN" "http://www.w3.org/Graphics/SVG/1.1/DTD/svg11.dtd"><svg t="1588905384428" class="icon" viewBox="0 0 1024 1024" version="1.1" xmlns="http://www.w3.org/2000/svg" p-id="871" xmlns:xlink="http://www.w3.org/1999/xlink" width="200" height="200"><defs><style type="text/css"></style></defs><path d="M503.747408 1.551148c9.403834-1.61174 19.219692 0.872521 27.011787 6.301538 99.758201 60.264521 199.613349 120.39574 299.407906 180.623906 5.70774 3.308308 11.645728 6.640852 15.705372 12.021396 9.016047 11.003456 10.409657 27.460166 3.3689 39.820876-5.768331 10.615669-17.195929 17.935148-29.290036 18.516828-206.084544 0.012118-412.169089 0.024237-618.253633 0-16.541538 0.399905-32.149964-12.06987-35.434035-28.284213-3.381018-14.323882 3.247716-30.259503 15.753846-38.003124C284.332686 130.829633 386.659976 69.110911 488.987266 7.392189c4.520142-2.799337 9.464426-5.029112 14.760142-5.841041m-7.295242 57.962035c-83.362083 50.279006-166.748402 100.533775-250.086249 150.849137 175.400899 0.012118 350.801799 0.012118 526.202698 0.012118-87.62774-52.908686-175.303953-105.732544-262.931692-158.616994-4.277775 2.799337-8.579787 5.538083-13.184757 7.755739zM195.553704 286.029254c7.222533-1.61174 14.651077-1.575385 22.006911-1.490556h596.125539c18.819787-0.024237 37.44568 7.779976 50.739503 21.085917 13.705846 13.499834 21.667598 32.62258 21.461586 51.878628-0.048473 50.715266 0.084828 101.418414-0.060592 152.13368 20.370935 0.36355 40.753988-0.012118 61.137041 0.181775 11.730556 0.278722 23.364166 3.490083 33.579929 9.258414 23.061207 12.687905 37.930414 38.633278 37.094249 64.966438-0.036355 119.595929-0.012118 239.191858-0.024237 358.787787 0.060592 7.695148 0.181775 15.499361-1.551148 23.061207-4.071763 19.886201-17.050509 37.675929-34.622106 47.806864-10.264237 6.265183-22.176568 8.797917-33.967716 10.300592H78.732876c-13.245349-0.933112-26.599763-3.938462-37.930414-11.112521-18.335053-11.100402-31.350154-30.659408-34.113137-51.951337-0.327195-3.029586-0.763456-6.07129-1.236071-9.064521v-368.761183c0.896757-10.82168 2.544852-21.776663 7.416426-31.616758 9.403834-20.225515 28.611408-35.543101 50.460782-40.099597 9.634083-2.205538 19.559006-1.514793 29.350627-1.61174 14.91768 0.048473 29.859598-0.121183 44.777278 0.084829 0.096947-1.502675 0.169657-2.993231 0.230248-4.483787V357.466888c-0.096947-14.11787 4.059645-28.223621 11.815385-40.01477 10.409657-16.008331 27.326864-27.629822 46.049704-31.422864m-9.391716 71.413397c0.012118 66.929609-0.036355 133.859219 0.024237 200.788828-35.991479 0.07271-71.995077-0.024237-107.998675 0.048474-9.73103 0-18.928852 6.616615-22.237159 15.741727-1.745041 4.350485-1.563266 9.100876-1.53903 13.705847 0.048473 121.231905-0.036355 242.451692 0.048473 363.671479-0.060592 13.002982 11.936568 24.297278 24.891077 23.642887 288.465041-0.012118 576.930083 0.012118 865.395125-0.012118 12.821207 0.424142 24.539645-10.918627 24.382106-23.776189 0.048473-122.783053 0-245.566107 0.024237-368.34916 0.315077-9.73103-5.937988-19.207574-14.978272-22.806722-5.671385-2.532734-12.009278-1.732923-18.019977-1.841988-32.925538-0.07271-65.863195 0.121183-98.776615-0.096947 0.084828-66.905373 0.012118-133.810746 0.036355-200.716118 0.448379-12.79697-10.82168-24.50329-23.642888-24.406343-201.188734-0.048473-402.377467-0.012118-603.566201-0.024237-12.954509-0.278722-24.527527 11.488189-24.042793 24.43058z" p-id="872"></path><path d="M294.136426 418.434272c64.518059-0.448379 129.072473-0.060592 193.602651-0.193893h222.989633c7.634556 0.193893 15.656899-0.945231 22.843077 2.314603 12.227408 4.895811 20.18916 18.432 18.395645 31.507693-1.429964 14.929799-15.366059 27.169325-30.35645 26.745183-136.913041 0.07271-273.826083 0.012118-410.739124 0.024237-8.797917-0.21813-18.189633 1.139124-26.321041-3.078059-11.512426-5.380544-18.638012-18.553183-16.820261-31.144143 1.502675-13.402888 12.990864-24.782012 26.40587-26.175621zM191.384994 665.987787c9.525018-2.48426 20.40729-1.53903 28.550817 4.350485 8.082935 5.598675 12.966627 15.329704 12.821207 25.145562 0.048473 40.838817 0 81.677633 0.024236 122.51645-0.012118 4.859456 0.206012 9.827976-1.272426 14.529894-3.090178 10.845917-12.72426 19.486296-23.873136 21.267692-7.586083 1.127006-15.729609 0.50897-22.503763-3.3689-9.415953-5.150296-15.584189-15.584189-15.535716-26.321041-0.084828-42.874698-0.048473-85.737278-0.024237-128.611976-0.351432-13.269586 9.016047-25.969609 21.813018-29.508166zM409.23645 665.52729c8.446485-1.672331 17.741254-0.908876 25.133443 3.780923 8.967574 5.429018 14.578367 15.753846 14.396592 26.224095 0 42.874698 0.036355 85.749396-0.024236 128.624094 0.024237 9.912805-5.235124 19.595361-13.511953 25.024379-7.949633 5.416899-18.310817 6.228828-27.448047 3.962698-12.760615-3.356781-22.30987-15.838675-22.152332-29.047668-0.012118-43.22613-0.048473-86.45226 0.012119-129.678391 0.060592-13.548308 10.349065-26.127148 23.594414-28.89013zM598.23413 665.539408c8.458604-1.68445 17.753373-0.933112 25.181917 3.756687 8.955456 5.429018 14.578367 15.753846 14.396592 26.236213 0 42.850462 0.024237 85.713041-0.012118 128.575621 0.024237 9.937041-5.247243 19.668071-13.572545 25.097089-7.949633 5.392663-18.310817 6.204592-27.460165 3.914225-12.772734-3.381018-22.297751-15.911385-22.103858-29.144616 0-43.15342-0.036355-86.318959 0.024236-129.484497 0.036355-13.560426 10.288473-26.163503 23.545941-28.950722zM813.019645 665.987787c9.258414-2.387314 19.801373-1.623858 27.860071 3.889988 8.507077 5.538083 13.730083 15.608426 13.499834 25.739361-0.024237 42.838343 0.024237 85.664568-0.024236 128.502911 0.024237 7.767858-3.126533 15.463006-8.591906 20.988971-12.191053 12.760615-35.409799 12.348592-46.95858-1.102769-5.174533-5.731976-7.82845-13.511953-7.586082-21.194983 0.024237-42.826225-0.036355-85.65245 0.024236-128.466556 0.07271-12.881799 9.403834-24.903195 21.776663-28.356923z" p-id="873"></path></svg>